#!OML:ASF F:\VICON\USERDATA\INSTALL\rory3\rory3.ASF
:FULLY-SPECIFIED
:DEGREES
63
root 0.7225132470521809 17.927921414059984 6.900126844301795 -3.0537147080247875 -1.3293632389543397 3.0936854344052294
lfemur 2.0469997291276147 -2.876232696877674 -29.819066968789805
ltibia 18.743729658067288
lfoot -17.490091831553425 4.819383954523491
ltoes 2.8576178710568763
rfemur -32.42104876149958 0.6362151436781125 17.617153284925866
rtibia 51.667002504931475
rfoot -8.562019055804369 -10.551405105461566
rtoes -0.033016323509305945
lowerback 10.318746561598436 -0.2745838308830829 -3.8606508726026716
upperback 0.669810428212525 -0.8010265815626327 0.45184090787935083
thorax -5.0253137147547635 -0.3002053720392479 2.5817014595474053
lowerneck -16.29538682127199 -2.730849950829975 -2.209047071135245
upperneck 21.297400309745864 -3.436568079477626 0.6747416262450595
head 9.487996862960989 -1.6913710199433403 0.1727402074026858
lclavicle -2.4282308173876038e-15 4.693581871708939e-16
lhumerus -26.192045183132326 -3.9655509285193506 83.28383314816314
lradius 26.960195859856682
lwrist 5.5308252714269965
lhand -27.088937108261096 24.5541473972228
lfingers 7.12502
lthumb -0.5058878585875154 54.529980994801434
rclavicle -2.4282308173876038e-15 4.693581871708939e-16
rhumerus -29.199905388444215 -17.404449670913074 -80.35860731312914
rradius 25.733628801408866
rwrist 3.994628494032911
rhand -16.97048734637501 22.735337681754775
rfingers 7.12502
rthumb 9.263727050173495 -7.035462228856952
64
root 0.6649152767604358 17.88247416130013 6.914382409896941 -2.4246260437002216 -0.39072930333271283 3.5986092530228295
lfemur 5.948666962412847 -2.6731229058196972 -30.313833935763896
ltibia 14.741441981317713
lfoot -18.086097337959863 4.1106316978354505
ltoes 1.7594985013972129
rfemur -33.07812948782103 2.2461931751474555 16.22711223564312
rtibia 38.77304690248294
rfoot -8.52911283035625 -13.43293461443378
rtoes -2.837797753313875
lowerback 9.989758193493758 -0.6775125368448968 -4.763421922255318
upperback 0.5969842903857763 -1.4243500136121088 0.49767986161359024
thorax -4.8794684514642634 -0.5925689517868606 3.147851081555764
lowerneck -16.417247312156476 -2.7580105102357897 -2.3004834554061895
upperneck 21.16934061207415 -3.4683135426804865 0.7473905706897722
head 9.465089951254841 -1.7037729464853348 0.20189518346670182
lclavicle -2.5331534293248533e-15 3.726788013414757e-16
lhumerus -24.078337334905292 -5.336188469522324 82.9847404240951
lradius 28.52858138161882
lwrist 6.353541927771536
lhand -27.214042875871897 25.03498288200553
lfingers 7.12502
lthumb -0.6267536711455958 55.007443401992134
rclavicle -2.5331534293248533e-15 3.726788013414755e-16
rhumerus -29.87659759101792 -17.867883106474423 -79.99926152030801
rradius 25.353351713204034
rwrist 4.226871778932482
rhand -16.998204903718957 23.148296882470596
rfingers 7.12502
rthumb 9.236977967846256 -6.623787722959318
65
root 0.5981022747810278 17.83172661414786 7.0571465755077405 -1.8219149463662674 0.4461885092329423 3.94642536976516
lfemur 9.678739114100406 -2.5962376338436473 -30.465928192576484
ltibia 11.36249375516502
lfoot -18.27815723999805 3.1584575383685225
ltoes -0.32202254762329163
rfemur -32.80218425477868 4.001263282652158 15.01691103829099
rtibia 27.19623216763917
rfoot -7.95544433895405 -15.626310674188739
rtoes -4.9762627551640115
lowerback 9.645384795615662 -1.000969605057001 -5.444132474270951
upperback 0.5209127466835348 -1.9135571213325724 0.5731033852371412
thorax -4.726045563798188 -0.8237767442241943 3.6199104715768247
lowerneck -16.549886762196174 -2.7831139475048574 -2.3435886884871664
upperneck 21.088955714584685 -3.5011465916528417 0.793416109425843
head 9.461160427677545 -1.7163112793296749 0.2157802232569711
lclavicle -2.5910376401675115e-15 3.19385221166393e-16
lhumerus -22.257715048217218 -6.242587339318823 82.67153227688472
lradius 29.80911667062076
lwrist 7.068327944049779
lhand -27.375099498135512 25.484208603062665
lfingers 7.12502
lthumb -0.7823588396699428 55.451262488351
rclavicle -2.5910376401675115e-15 3.19385221166393e-16
rhumerus -30.515244684830208 -18.826408960056742 -79.40337227137822
rradius 24.658947823499
rwrist 4.980510613105519
rhand -17.04462698400265 23.445688972926263
rfingers 7.12502
rthumb 9.19217680583582 -6.328628538520205
66
root 0.5308043262377449 17.782897688643217 7.439576615848985 -1.3777907170754335 1.1702530980804973 4.083624708783519
lfemur 12.98474215123354 -2.8048679550095965 -30.219921750566435
ltibia 9.318157864620616
lfoot -17.97675981036991 1.983225047591475
ltoes -3.45435136599795
rfemur -31.964595646715424 5.387327956447385 14.401900280655475
rtibia 19.22203797073103
rfoot -7.237423425876951 -16.37324809219203
rtoes -6.253150355048229
lowerback 9.357068230144659 -1.238265106059039 -5.802994688908252
upperback 0.4549723656970232 -2.2540595405593424 0.7001628924734389
thorax -4.597352225157161 -0.9869161832178746 3.986766786132569
lowerneck -16.678538293735265 -2.8011968089355275 -2.360812274926932
upperneck 21.055349384589558 -3.522705315756643 0.806235190393415
head 9.474246115962934 -1.7253173693284642 0.2186355546816268
lclavicle -2.511056602074918e-15 3.9300806214757363e-16
lhumerus -20.966671514767306 -6.586459481860384 82.43328979889557
lradius 30.72960731949705
lwrist 7.576512597140199
lhand -27.76372193212965 25.44239877954653
lfingers 7.12502
lthumb -1.1577087149240497 55.40420828172968
rclavicle -2.511056602074918e-15 3.9300806214757363e-16
rhumerus -31.110131338856576 -20.18739902253499 -78.55135933013831
rradius 23.766328573537542
rwrist 6.2022852406693065
rhand -17.09906550705479 23.39755541875622
rfingers 7.12502
rthumb 9.139643538735658 -6.3795278479105555
67
root 0.47969618007596415 17.755273487899416 8.535406172314891 -1.1234565914871566 1.8836897591568618 4.0575136581918425
lfemur 15.92948469521004 -3.140491523833272 -29.295453131001086
ltibia 10.135490384474185
lfoot -16.530763780822518 0.8004289343344526
ltoes -7.087261842463127
rfemur -30.453693073707043 6.203165021445878 14.882449393229287
rtibia 16.49485167051334
rfoot -6.025803798999928 -15.241649751676361
rtoes -5.935569633141732
lowerback 9.207924895973772 -1.3489071308723615 -5.619461264365679
upperback 0.4339084658483899 -2.3704129546992765 0.9470375272344236
thorax -4.491455887358094 -1.0488671159856913 4.326183557347266
lowerneck -16.74155157271585 -2.7977795980533693 -2.310909090941397
upperneck 21.12287139649595 -3.508629335041458 0.7753298862527125
head 9.5163183446057 -1.7226670599366811 0.20824327828372552
lclavicle -1.6887453479704677e-15 1.1502920600045084e-15
lhumerus -20.088640048425937 -6.369423199076122 82.46968379941998
lradius 31.485937508891706
lwrist 8.001629346853727
lhand -28.083242364120686 25.445963725362816
lfingers 7.12502
lthumb -1.4663185282216074 55.40261361558706
rclavicle -1.6887453479704679e-15 1.1502920600045084e-15
rhumerus -31.550705341982614 -21.65266755857874 -77.35583797928902
rradius 22.893190418339795
rwrist 7.920000495505092
rhand -17.137217478290363 23.241761410703553
rfingers 7.12502
rthumb 9.102829272427694 -6.5396577333690455
68
root 0.404766245411511 17.73164766243031 8.71308600890622 -1.1474498630688863 2.401085064997512 3.6495343134731155
lfemur 17.625343185882915 -3.766815061195432 -28.500663728515196
ltibia 11.866172028473077
lfoot -14.460364474066143 -1.231182642137731
ltoes -11.203697323074367
rfemur -29.976086679294696 6.2993377955741785 15.603006419543824
rtibia 16.245200820519717
rfoot -5.154445544236714 -13.326051440759404
rtoes -5.147990722566528
lowerback 9.118913730005104 -1.5441280111091782 -5.440589816076796
upperback 0.426653353595869 -2.5957236390054947 1.2133815665205987
thorax -4.440057249101458 -1.1633891863366101 4.514927110990188
lowerneck -16.807644888540825 -2.7834345007094115 -2.292603565029842
upperneck 21.21240594831092 -3.4744692457961697 0.6412806282827475
head 9.557376659672606 -1.7144131482635727 0.17207910655016423
lclavicle -1.677741481907298e-15 1.1603408454912234e-15
lhumerus -19.952507704828065 -6.211997577503357 82.59498175345776
lradius 31.929164820622493
lwrist 8.150006057634801
lhand -28.601867457542085 24.900266788446668
lfingers 7.12502
lthumb -1.967190263918147 54.8533848301531
rclavicle -1.677741481907298e-15 1.1603408454912232e-15
rhumerus -32.20417840957314 -23.549351227576885 -76.17455294649113
rradius 21.856602195965362
rwrist 9.649383126908818
rhand -17.221339731776233 22.79821069261699
rfingers 7.12502
rthumb 9.02166063954578 -6.986775925244231
69
root 0.3354601700240459 17.736889716154252 9.007644699009887 -1.3725239162610867 2.8807319469806765 2.9789762215659246
lfemur 18.54645238436782 -4.29980222017135 -27.15518849696456
ltibia 16.427813457247268
lfoot -10.618855993096957 -3.839287542748015
ltoes -14.608490426075939
rfemur -29.2874764427932 6.032446359835374 17.121272580062467
rtibia 18.8164582399475
rfoot -4.082724310830288 -10.546850212375325
rtoes -3.2175163708535437
lowerback 9.115772487746174 -1.7077649423947205 -4.886002492816785
upperback 0.43140362454087344 -2.73753508564282 1.5822477697415591
thorax -4.427378568980036 -1.2422515097886724 4.657416904787887
lowerneck -16.821304309474307 -2.7433395605249675 -2.2312147255209602
upperneck 21.359685246353525 -3.3968840681686223 0.4427786695273504
head 9.60709067333995 -1.6919987861766057 0.11851080652989915
lclavicle -1.3932692426229453e-15 1.4223875616800425e-15
lhumerus -20.297898731569006 -5.77362218965395 82.87534211742546
lradius 32.241987801396625
lwrist 8.225303400809292
lhand -28.833090416931768 24.651759094093713
lfingers 7.12502
lthumb -2.1905160816016744 54.60180946847658
rclavicle -1.3932692426229453e-15 1.4223875616800425e-15
rhumerus -32.88777089791322 -25.52106303807973 -74.80787019564822
rradius 20.849851228211886
rwrist 11.516203998432202
rhand -17.27989755342755 22.439773046165598
rfingers 7.12502
rthumb 8.965167084632537 -7.349100367914224
